<svg width="45" height="28" viewBox="0 0 45 28" fill="none" xmlns="http://www.w3.org/2000/svg">
<path d="M42.1055 19.2051C42.1054 15.9721 39.3543 13.2773 35.8682 13.2773C34.8729 13.2774 33.9378 13.4976 33.1094 13.8867L36.667 18.6025L35.0703 19.8076L31.4551 15.0166C30.3242 16.0954 29.6318 17.5825 29.6318 19.2051C29.6318 22.438 32.3822 25.1327 35.8682 25.1328C39.3543 25.1328 42.1055 22.4381 42.1055 19.2051ZM13.376 13.0117C15.0045 14.2632 16.1319 16.0983 16.4062 18.2051H19.7441L15.3867 9.86328L13.376 13.0117ZM10.0615 18.2051H14.3828C14.1339 16.821 13.3786 15.5905 12.2949 14.7051L10.0615 18.2051ZM21.7354 17.6973L29.207 12.0771L26.8145 8.86914H17.124L21.7354 17.6973ZM2 19.2051C2 22.4381 4.75118 25.1328 8.2373 25.1328C11.3563 25.1326 13.8848 22.9749 14.3828 20.2051H6.41211L10.5615 13.7031C9.84562 13.4298 9.0623 13.2774 8.2373 13.2773C4.7512 13.2773 2.00002 15.9721 2 19.2051ZM44.1055 19.2051C44.1055 23.6241 40.3756 27.1328 35.8682 27.1328C31.3608 27.1327 27.6318 23.624 27.6318 19.2051C27.6318 17.492 28.1936 15.917 29.1426 14.6289L21.7285 20.2051H16.4062C15.8937 24.1416 12.3986 27.1326 8.2373 27.1328C3.72983 27.1328 0 23.6241 0 19.2051C2.14632e-05 14.7861 3.72985 11.2773 8.2373 11.2773C9.45202 11.2774 10.6094 11.5343 11.6533 11.9932L14.9258 6.86914H26.7627L31.0674 0L34.5859 3.36816L33.2031 4.8125L31.458 3.14258L28.5283 7.81641L31.8867 12.2666C33.0708 11.6362 34.4296 11.2774 35.8682 11.2773C40.3756 11.2773 44.1054 14.7861 44.1055 19.2051Z" fill="black"/>
</svg>
